Coordinates
version=1
nRows=5
nColumns=53
inDegrees=yes

Units are S.I. units (second, meters, Newtons, ...)
Angles are in degrees.

endheader
time	pelvis_tilt	pelvis_list	pelvis_rot	pelvis_tx	pelvis_ty	pelvis_tz	hip_flex_r	hip_add_r	hip_rot_r	pf_flex_r	pf_rot_r	pf_tilt_r	pf_tx_r	pf_ty_r	pf_tz_r	knee_flex_r	knee_add_r	knee_rot_r	knee_tx_r	knee_ty_r	knee_tz_r	ankle_flex_r	subt_angle_r	mtp_angle_r	hip_flex_l	hip_add_l	hip_rot_l	pf_l_r3	pf_l_tx	pf_l_ty	knee_flex_l	ankle_flex_l	subt_angle_l	mtp_angle_l	lumbar_ext	lumbar_latbend	lumbar_rot	neck_ext	neck_latbend	neck_rot	arm_add_r	arm_flex_r	arm_rot_r	elbow_flex_r	pro_sup_r	wrist_flex_r	arm_add_l	arm_flex_l	arm_rot_l	elbow_flex_l	pro_sup_l	wrist_flex_l
      0.59000000	     -3.81216734	      0.10631082	     -1.20479772	     -0.86350303	      0.91493793	     -0.17848738	     -2.85200765	      2.18929682	     -5.35355086	      8.10801433	      0.69477388	     -2.79657984	      0.05318984	      0.00833483	      0.00509236	     -0.53527324	     -0.20145506	      0.38828407	      0.00170378	      0.00018261	     -0.00023789	      4.47783984	     -2.17529125	      0.00000000	     24.36014360	      4.02830337	      4.37933776	      0.06513700	      0.04435000	     -0.41871200	      0.56109805	      0.03524520	      0.06635239	      0.00000000	    -12.52818646	     -2.48464852	     -0.92695157	      8.11667058	      0.00000000	      0.00000000	    -20.35821847	     24.33130175	     39.82806500	     26.67492547	     51.72354764	      0.00000000	    -15.39829646	      2.86603798	     32.59994094	     10.86916138	     45.45156782	      0.00000000
      0.59500000	     -3.98183950	     -0.00275337	     -1.34352621	     -0.85730994	      0.91403400	     -0.17844776	     -3.21544268	      2.31330037	     -5.38077716	      7.94748953	      0.70835040	     -2.74639052	      0.05317062	      0.00848757	      0.00511153	     -0.74925377	     -0.21733185	      0.36971091	      0.00165687	      0.00016592	     -0.00022648	      4.60775884	     -2.13285223	      0.00000000	     24.60323584	      4.02417612	      3.97058721	      0.06513700	      0.04435000	     -0.41871200	      0.52450428	      0.03707005	      0.06499305	      0.00000000	    -12.26464613	     -2.40921935	     -0.49129036	      8.12094584	      0.00000000	      0.00000000	    -20.60590377	     24.58299965	     39.75030062	     26.71997906	     51.73657486	      0.00000000	    -15.45670537	      2.21748180	     32.59718808	     10.64776007	     45.43874102	      0.00000000
      0.60000000	     -4.01133819	      0.12979875	     -1.42728208	     -0.85101107	      0.91335197	     -0.17871561	     -3.82856887	      2.14774990	     -5.33296613	      7.66071670	      0.73260445	     -2.65672878	      0.05313628	      0.00876044	      0.00514577	     -1.13152368	     -0.24569527	      0.33653051	      0.00157308	      0.00013610	     -0.00020609	      5.17638995	     -1.58096218	      0.00000000	     24.50024455	      3.60262154	      3.18982713	      0.06513700	      0.04435000	     -0.41871200	      0.47984914	      0.01655793	      0.03554095	      0.00000000	    -12.30904547	     -2.61623151	     -0.45079870	      8.19393289	      0.00000000	      0.00000000	    -20.92311118	     24.79862211	     39.37859219	     27.49933215	     51.88285375	      0.00000000	    -15.31325140	      1.52113875	     32.55732033	      9.74270543	     45.28060472	      0.00000000
      0.60500000	     -4.16173940	      0.07483481	     -1.53651261	     -0.84468372	      0.91231233	     -0.17880165	     -4.28029263	      2.20889112	     -5.23432545	      7.42301793	      0.75270802	     -2.58241042	      0.05310781	      0.00898661	      0.00517415	     -1.44837758	     -0.26920500	      0.30902811	      0.00150363	      0.00011138	     -0.00018918	      5.38494611	     -1.52089636	      0.00000000	     24.60317197	      3.51292103	      2.53160164	      0.06513700	      0.04435000	     -0.41871200	      0.43926321	      0.01784932	      0.03338817	      0.00000000	    -12.13560823	     -2.60633574	     -0.14492276	      8.20568895	      0.00000000	      0.00000000	    -21.17779922	     25.02451846	     39.25568058	     27.60068248	     51.90786955	      0.00000000	    -15.34167355	      0.83945828	     32.53945319	      9.49100437	     45.25165446	      0.00000000
      0.61000000	     -4.26905879	      0.03131757	     -1.62581609	     -0.83840952	      0.91125111	     -0.17897781	     -4.77527170	      2.24972335	     -5.12248670	      7.18080276	      0.77319358	     -2.50667997	      0.05307881	      0.00921709	      0.00520308	     -1.77125187	     -0.29316142	      0.28100315	      0.00143285	      0.00008620	     -0.00017196	      5.65528678	     -1.42778154	      0.00000000	     24.62510313	      3.39485354	      1.74235410	      0.06513700	      0.04435000	     -0.41871200	      0.39707024	      0.01504812	      0.02650364	      0.00000000	    -12.06096845	     -2.54342531	      0.06826859	      8.22076431	      0.00000000	      0.00000000	    -21.41218599	     25.27926778	     39.11305881	     27.79918289	     51.94488214	      0.00000000	    -15.35825290	      0.11201712	     32.49909951	      9.17192660	     45.21331070	      0.00000000
